<svg xmlns="http://www.w3.org/2000/svg" width="1383.5" height="350" viewBox="0 0 1383.5 350"><path d="M443.122 220.024h38.01l28.712 84.463h.35l27.172-84.463h38.014v122.842h-25.273V255.84h-.345l-30.097 87.026h-20.818l-30.115-86.158h-.334v86.158H443.12V220.024h.002zm170.11 84.304c.686 15.506 8.25 22.546 21.838 22.546 9.802 0 17.71-6.014 19.28-11.535h21.478c-6.88 20.988-21.486 29.946-41.612 29.946-28.043 0-45.407-19.284-45.407-46.82 0-26.63 18.41-46.937 45.406-46.937 30.27 0 44.884 25.452 43.17 52.798h-64.153zm39.722-15.473c-2.233-12.4-7.564-18.942-19.434-18.942-15.46 0-19.944 12.062-20.287 18.95h39.72v-.008zm104.094 42.665h-.364c-5.672 9.614-15.64 13.767-27.007 13.767-26.83 0-39.9-23.067-39.9-47.66 0-23.897 13.236-46.097 39.378-46.097 10.503 0 20.82 4.463 26.498 13.232h-.173.342v-44.737h24.432v122.842H757.05V331.52h-.002zm-21.34-61.61c-15.995 0-21.5 13.768-21.5 28.407 0 13.918 6.358 28.557 21.5 28.557 16.16 0 20.978-14.113 20.978-28.714 0-14.487-5.162-28.247-20.977-28.247v-.003zm88.065-29.744H799.35v-20.15h24.424v20.158-.008zM799.35 253.94h24.424v88.926H799.35V253.94zM842 281.29c1.38-22.885 21.85-29.76 41.795-29.76 17.72 0 39.056 3.963 39.056 25.295v46.27c0 8.062.85 16.15 3.085 19.776h-24.762c-.868-2.76-1.547-5.67-1.74-8.617-7.733 8.088-19.08 11.033-29.92 11.033-16.853 0-30.274-8.43-30.274-26.663 0-20.157 15.126-24.966 30.272-27.04 14.983-2.236 28.9-1.71 28.9-11.694 0-10.507-7.223-12.027-15.83-12.027-9.287 0-15.3 3.784-16.154 13.427h-24.432.004zm56.432 18.042c-4.146 3.622-12.743 3.783-20.31 5.155-7.585 1.578-14.444 4.116-14.444 13.074 0 9.118 7.05 11.346 14.955 11.346 19.094 0 19.794-15.128 19.794-20.46v-9.114h.005zm93.734-79.308h86.352v22.73h-59.332v28.365h51.4v20.988h-51.4v50.757H992.16v-122.84h.006zm180.78 122.842h-23.226v-12.4h-.51c-6.193 9.98-16.85 14.82-27.2 14.82-25.963 0-32.484-14.63-32.484-36.674V253.95h24.412v50.197c0 14.65 4.306 21.87 15.664 21.87 13.234 0 18.924-7.38 18.924-25.492v-46.57h24.42v88.92-.01zm18.57-88.925h23.225v12.37h.524c6.186-9.977 16.848-14.79 27.158-14.79 25.99 0 32.51 14.632 32.51 36.617v54.73h-24.41v-50.223c0-14.642-4.307-21.867-15.658-21.867-13.24 0-18.91 7.415-18.91 25.458v46.63h-24.438v-88.924zm162.908 77.58h-.355c-5.673 9.614-15.653 13.767-26.997 13.767-26.84 0-39.917-23.067-39.917-47.66 0-23.897 13.258-46.097 39.39-46.097 10.495 0 20.825 4.463 26.494 13.232h-.164.347v-44.737h24.41v122.842h-23.222V331.52h.018-.004zm-21.335-61.61c-16.002 0-21.52 13.768-21.52 28.407 0 13.918 6.37 28.557 21.52 28.557 16.174 0 20.978-14.113 20.978-28.714 0-14.487-5.163-28.247-20.98-28.247v-.003zM521.097 48.892c-1.72-12.18-13.406-21.485-26.836-21.485-24.25 0-33.365 20.652-33.365 42.142 0 20.494 9.115 41.118 33.362 41.118 16.513 0 25.803-11.346 27.882-27.537h26.128c-2.754 30.635-23.9 50.23-54.01 50.23-38.01 0-60.36-28.365-60.36-63.812 0-36.46 22.352-64.835 60.36-64.835 27.01 0 49.718 15.812 52.98 44.178h-26.152.01zm41.965 19.973c1.376-22.88 21.854-29.767 41.804-29.767 17.717 0 39.048 3.944 39.048 25.268v46.294c0 8.062.853 16.154 3.1 19.783h-24.787c-.844-2.764-1.528-5.672-1.708-8.623-7.75 8.088-19.103 11.01-29.925 11.01-16.857 0-30.296-8.435-30.296-26.664 0-20.093 15.146-24.93 30.295-26.978 14.952-2.23 28.9-1.73 28.9-11.716 0-10.482-7.233-12.03-15.83-12.03-9.283 0-15.3 3.782-16.172 13.426H563.07l-.008-.003zM619.5 86.942c-4.147 3.597-12.73 3.78-20.31 5.15-7.566 1.546-14.454 4.12-14.454 13.077 0 9.092 7.06 11.344 14.975 11.344 19.083 0 19.784-15.16 19.784-20.49v-9.082h.005zm43.333-45.425h23.222V53.92h.507c6.204-10.017 16.868-14.82 27.19-14.82 25.968 0 32.51 14.605 32.51 36.654v54.69h-24.427V80.21c0-14.604-4.3-21.826-15.647-21.826-13.257 0-18.93 7.38-18.93 25.455v46.603h-24.433v-88.93l.008.004zM763.8 68.865c1.38-22.88 21.848-29.767 41.81-29.767 17.706 0 39.04 3.944 39.04 25.268v46.294c0 8.062.847 16.154 3.09 19.783h-24.76c-.873-2.764-1.55-5.672-1.722-8.623-7.753 8.088-19.104 11.01-29.934 11.01-16.855 0-30.278-8.435-30.278-26.664 0-20.093 15.15-24.93 30.275-26.978 14.978-2.23 28.898-1.73 28.898-11.716 0-10.482-7.226-12.03-15.825-12.03-9.29 0-15.3 3.782-16.156 13.426h-24.432l-.006-.003zm56.418 18.077c-4.122 3.597-12.73 3.78-20.296 5.15-7.562 1.546-14.443 4.12-14.443 13.077 0 9.092 7.05 11.344 14.954 11.344 19.104 0 19.784-15.16 19.784-20.49v-9.082zm105.965 32.16h-.337c-5.69 9.636-15.662 13.733-27.025 13.733-26.82 0-39.892-23.04-39.892-47.625 0-23.91 13.237-46.11 39.377-46.11 10.504 0 20.82 4.497 26.494 13.244h-.185.36V7.636h24.432v122.812H926.19v-11.345h-.007zM904.83 57.52c-15.982 0-21.484 13.76-21.484 28.365 0 13.96 6.358 28.567 21.485 28.567 16.19 0 21.016-14.11 21.016-28.75 0-14.424-5.163-28.188-21.015-28.188v.005zm61.956 11.345c1.368-22.88 21.83-29.767 41.803-29.767 17.7 0 39.028 3.944 39.028 25.268v46.294c0 8.062.856 16.154 3.104 19.783h-24.77c-.873-2.764-1.556-5.672-1.725-8.623-7.74 8.088-19.104 11.01-29.93 11.01-16.848 0-30.273-8.435-30.273-26.664 0-20.093 15.127-24.93 30.274-26.978 14.963-2.23 28.902-1.73 28.902-11.716 0-10.482-7.24-12.03-15.834-12.03-9.284 0-15.3 3.782-16.174 13.426h-24.415l.01-.003zm56.415 18.077c-4.14 3.597-12.728 3.78-20.308 5.15-7.564 1.546-14.456 4.12-14.456 13.077 0 9.092 7.056 11.344 14.982 11.344 19.083 0 19.782-15.16 19.782-20.49v-9.082z"/><path fill="#6C6C6D" d="M5.867 305.565h37.378v37.364H5.867v-37.365zm74.764.033h37.38v37.332H80.63v-37.332zm74.766 0h37.362v37.332h-37.362v-37.332zm74.736 0h37.386v37.332h-37.386v-37.332z"/><path fill="#535353" d="M43.245 305.565H80.64v37.364H43.244v-37.365zm74.757 0h37.394v37.364h-37.394v-37.365zm74.752 0h37.378v37.364h-37.378v-37.365zm74.764 0h37.38v37.364h-37.38v-37.365z"/><path fill="#6C6C6D" d="M304.893 305.598h37.368v37.332h-37.367v-37.332z"/><path fill="#7B7C7C" d="M5.867 268.172h37.378v37.394H5.867v-37.394z"/><path fill="#6C6C6D" d="M43.245 268.172H80.64v37.394H43.244v-37.394z"/><path fill="#7B7C7C" d="M80.63 268.172h37.38v37.394H80.63v-37.394z"/><path fill="#6C6C6D" d="M118.002 268.172h37.394v37.394h-37.394v-37.394z"/><path fill="#7B7C7C" d="M155.396 268.172h37.362v37.394h-37.362v-37.394z"/><path fill="#6C6C6D" d="M192.754 268.172h37.378v37.394h-37.378v-37.394z"/><path fill="#7B7C7C" d="M230.132 268.172h37.386v37.394h-37.386v-37.394z"/><path fill="#6C6C6D" d="M267.518 268.172h37.38v37.394h-37.38v-37.394z"/><path fill="#7B7C7C" d="M304.893 268.172h37.368v37.394h-37.367v-37.394z"/><g><path fill="#6C6C6D" d="M5.867 230.81h37.378v37.395H5.867V230.81z"/><path fill="#929191" d="M43.245 230.81H80.64v37.395H43.244V230.81z"/><path fill="#747575" d="M80.63 230.81h37.38v37.395H80.63V230.81z"/><path fill="#A1A1A0" d="M118.002 230.81h37.394v37.395h-37.394V230.81z"/><path fill="#6C6C6D" d="M155.396 230.81h37.362v37.395h-37.362V230.81z"/><path fill="#7B7C7C" d="M192.754 230.81h37.378v37.395h-37.378V230.81z"/><path fill="#A1A1A0" d="M230.132 230.81h37.386v37.395h-37.386V230.81z"/><path fill="#7B7C7C" d="M267.518 230.81h37.38v37.395h-37.38V230.81z"/><path fill="#747575" d="M304.893 230.81h37.368v37.395h-37.367V230.81z"/></g><g><path fill="#A1A1A0" d="M5.867 193.448h37.378v37.362H5.867v-37.362z"/><path fill="#C3C3C3" d="M43.245 193.448H80.64v37.362H43.244v-37.362z"/><path fill="#959595" d="M80.63 193.448h37.38v37.362H80.63v-37.362z"/><path fill="#888787" d="M118.002 193.448h37.394v37.362h-37.394v-37.362z"/><path fill="#9E9F9F" d="M155.396 193.448h37.354v37.362h-37.354v-37.362z"/><path fill="#D8D8D7" d="M192.754 193.448h37.378v37.362h-37.378v-37.362z"/><path fill="#929191" d="M230.132 193.448h37.386v37.362h-37.386v-37.362z"/><path fill="#747575" d="M267.518 193.448h37.38v37.362h-37.38v-37.362z"/><path fill="#AEAEAE" d="M304.893 193.448h37.368v37.362h-37.367v-37.362z"/></g><g><path fill="#D8D8D7" d="M5.867 156.085h37.378v37.363H5.867v-37.363z"/><path fill="#AEAEAE" d="M43.245 156.085H80.64v37.363H43.244v-37.363z"/><path fill="#868787" d="M80.63 156.085h37.38v37.363H80.63v-37.363z"/><path fill="#D8D8D7" d="M118.002 156.085h37.394v37.363h-37.394v-37.363z"/><path fill="#BCBCBC" d="M155.396 156.085h37.354v37.363h-37.354v-37.363z"/><path fill="#969696" d="M192.754 156.085h37.378v37.363h-37.378v-37.363z"/><path fill="#D1D2D2" d="M230.132 156.085h37.386v37.363h-37.386v-37.363z"/><path fill="#B8B8B9" d="M267.518 156.085h37.38v37.363h-37.38v-37.363z"/><path fill="#929191" d="M304.893 156.085h37.368v37.363h-37.367v-37.363z"/></g><g><path fill="#AEAEAE" d="M5.867 118.692h37.378v37.362H5.867v-37.362z"/><path fill="#888787" d="M43.245 118.692H80.64v37.362H43.244v-37.362z"/><path fill="#AEAEAE" d="M80.63 118.692h37.38v37.362H80.63v-37.362z"/><path fill="#888787" d="M118.002 118.692h37.394v37.362h-37.394v-37.362z"/><path fill="#AEAEAE" d="M155.396 118.692h37.362v37.362h-37.362v-37.362z"/><path fill="#888787" d="M192.754 118.692h37.378v37.362h-37.378v-37.362z"/><path fill="#AEAEAE" d="M230.132 118.692h37.386v37.362h-37.386v-37.362z"/><path fill="#888787" d="M267.518 118.692h37.38v37.362h-37.38v-37.362z"/><path fill="#AEAEAE" d="M304.893 118.692h37.368v37.362h-37.367v-37.362z"/></g><g><path fill="#D8D8D7" d="M5.867 81.33h37.378v37.362H5.867V81.33z"/><path fill="#AEAEAE" d="M43.245 81.33H80.64v37.362H43.244V81.33z"/><path fill="#D8D8D7" d="M80.63 81.33h37.38v37.362H80.63V81.33z"/><path fill="#AEAEAE" d="M118.002 81.33h37.394v37.362h-37.394V81.33z"/><path fill="#D8D8D7" d="M155.396 81.33h37.362v37.362h-37.362V81.33z"/><path fill="#AEAEAE" d="M192.754 81.33h37.378v37.362h-37.378V81.33z"/><path fill="#D8D8D7" d="M230.132 81.33h37.386v37.362h-37.386V81.33z"/><path fill="#AEAEAE" d="M267.518 81.33h37.38v37.362h-37.38V81.33z"/><path fill="#D8D8D7" d="M304.893 81.33h37.368v37.362h-37.367V81.33z"/></g><g><path fill="#E5E5E5" d="M5.867 43.935h37.378V81.33H5.867V43.934z"/><path fill="#CDCDCD" d="M43.245 43.935H80.64V81.33H43.244V43.934z"/><path fill="#E5E5E5" d="M80.63 43.935h37.38V81.33H80.63V43.934z"/><path fill="#CDCDCD" d="M118.002 43.935h37.394V81.33h-37.394V43.934z"/><path fill="#E5E5E5" d="M155.396 43.935h37.362V81.33h-37.362V43.934z"/><path fill="#CDCDCD" d="M192.754 43.935h37.378V81.33h-37.378V43.934z"/><path fill="#E5E5E5" d="M230.132 43.935h37.386V81.33h-37.386V43.934z"/><path fill="#CDCDCD" d="M267.518 43.935h37.38V81.33h-37.38V43.934z"/><path fill="#E5E5E5" d="M304.893 43.935h37.368V81.33h-37.367V43.934z"/></g><g><path fill="#F1F1F1" d="M5.867 6.573h37.378v37.362H5.867V6.573z"/><path fill="#E7E6E6" d="M43.245 6.573H80.64v37.362H43.244V6.573z"/><path fill="#F1F1F1" d="M80.63 6.573h37.38v37.362H80.63V6.573z"/><path fill="#E7E6E6" d="M118.002 6.573h37.394v37.362h-37.394V6.573z"/><path fill="#F1F1F1" d="M155.396 6.573h37.362v37.362h-37.362V6.573z"/><path fill="#E7E6E6" d="M192.754 6.573h37.378v37.362h-37.378V6.573z"/><path fill="#F1F1F1" d="M230.132 6.573h37.386v37.362h-37.386V6.573z"/><path fill="#E7E6E6" d="M267.518 6.573h37.38v37.362h-37.38V6.573z"/><path fill="#F1F1F1" d="M304.893 6.573h37.368v37.362h-37.367V6.573z"/></g></svg>