<svg xmlns="http://www.w3.org/2000/svg" viewBox="0 0 350 350">
	<g>
		<path fill="transparent" d="M294.664,29.47H55.346c-14.266,0-25.872,11.605-25.872,25.87v239.318c0,14.266,11.606,25.878,25.872,25.878
			h239.318c14.268,0,25.868-11.612,25.868-25.878V55.34C320.532,41.075,308.93,29.47,294.664,29.47z M133.368,272.973V77.028
			l84.134,97.968L133.368,272.973z"/>
		<path fill="#2A3737" d="M294.664,3.597H55.346C26.814,3.597,3.602,26.81,3.602,55.34v239.318c0,28.534,23.212,51.744,51.744,51.744
			h239.318c28.529,0,51.734-23.211,51.734-51.744V55.34C346.398,26.809,323.193,3.597,294.664,3.597z M320.532,294.658
			c0,14.266-11.601,25.878-25.868,25.878H55.346c-14.266,0-25.872-11.612-25.872-25.878V55.34c0-14.265,11.606-25.87,25.872-25.87
			h239.318c14.266,0,25.868,11.605,25.868,25.87V294.658z"/>
		<polygon fill="#2A3737" points="133.368,272.973 217.502,174.996 133.368,77.028 	"/>
	</g>
</svg>
