<svg xmlns="http://www.w3.org/2000/svg" width="350" height="350" viewBox="0 0 350 350"><path fill="#2A3737" d="M294.664 346.402H55.346c-28.532 0-51.744-23.21-51.744-51.744V55.34c0-28.53 23.212-51.743 51.744-51.743h239.318c28.53 0 51.734 23.212 51.734 51.743v239.318c0 28.533-23.204 51.744-51.734 51.744zM55.346 29.47c-14.266 0-25.872 11.605-25.872 25.87v239.318c0 14.266 11.606 25.878 25.872 25.878h239.318c14.267 0 25.868-11.612 25.868-25.878V55.34c0-14.265-11.603-25.87-25.868-25.87H55.346z"/><path fill="#2A3737" d="M175.44 217.067l-97.977-84.134h195.944"/></svg>