<svg xmlns="http://www.w3.org/2000/svg" width="350px" height="350px" viewBox="0 0 350 350">
	<path fill="#2A3737" d="M294.664,346.402H55.346c-28.532,0-51.744-23.21-51.744-51.744V55.34c0-28.53,23.212-51.743,51.744-51.743 h239.318c28.529,0,51.734,23.212,51.734,51.743v239.318C346.398,323.191,323.193,346.402,294.664,346.402L294.664,346.402z M55.346,29.47c-14.266,0-25.872,11.605-25.872,25.87v239.318c0,14.266,11.606,25.878,25.872,25.878h239.318 c14.268,0,25.868-11.612,25.868-25.878V55.34c0-14.265-11.603-25.87-25.868-25.87H55.346z"/>
	<path fill="#2A3737" d="M133.368,175.005l84.134-97.977v195.944"/>
</svg>
