<svg xmlns="http://www.w3.org/2000/svg" width="350" height="350" viewBox="0 0 350 350">
	<path fill="#BDB76B" d="M345.74 69.095c-12.563 5.57-26.064 9.338-40.238 11.03 14.467-8.67 25.574-22.4 30.805-38.76-13.535 8.03-28.528 13.86-44.488 17.002-12.78-13.616-30.988-22.124-51.138-22.124-38.693 0-70.062 31.368-70.062 70.058 0 5.492.62 10.84 1.815 15.967-58.227-2.922-109.85-30.813-144.403-73.2-6.03 10.348-9.485 22.382-9.485 35.222 0 24.305 12.37 45.748 31.167 58.312-11.484-.363-22.287-3.516-31.733-8.763-.004.29-.005.584-.005.88 0 33.944 24.15 62.26 56.2 68.696-5.88 1.6-12.07 2.457-18.458 2.457-4.515 0-8.903-.44-13.182-1.257 8.916 27.832 34.79 48.088 65.445 48.654-23.977 18.79-54.185 29.99-87.008 29.99-5.654 0-11.23-.33-16.712-.978 31.004 19.877 67.83 31.475 107.394 31.475 128.865 0 199.333-106.752 199.333-199.333 0-3.037-.068-6.06-.203-9.062 13.686-9.88 25.564-22.218 34.956-36.267z"/>
</svg>